{"title":"Paramparca S01E21Gr Subs (Ragismenes Kardies)","uid":12867366,"size":318819970,"categoryP":"video","categoryS":"tv_shows","magnet":"?xt=urn:btih:82100a0a99da2e8135229fabdf86f307c599608f&amp;dn=Paramparca+S01E21Gr+Subs+%28Ragismenes+Kardies%29&amp;tr=udp%3A%2F%2Ftracker.leechers-paradise.org%3A6969&amp;tr=udp%3A%2F%2Fzer0day.ch%3A1337&amp;tr=udp%3A%2F%2Fopen.demonii.com%3A1337&amp;tr=udp%3A%2F%2Ftracker.coppersurfer.tk%3A6969&amp;tr=udp%3A%2F%2Fexodus.desync.com%3A6969","seeders":0,"leechers":1,"uploader":"Aris2015","files":1,"time":1448826862,"description":"σημειωση: η ποιότητα ειναι ιδιο με αυτο εδω\r\n \nhttps://thepiratebay.gd/torrent/12774736/Paramparca_S01E21-22_Gr_Subs_(Ragismenes_Kardies)\r\n\r\nGeneral \r\nComplete name : Paramparca S01E21 Gr Subs.avi \r\nFormat : AVI \r\nFormat/Info : Audio Video Interleave \r\nFile size : 304 MiB \r\nDuration : 45mn 21s \r\nOverall bit rate : 937 Kbps \r\nMovie name : Paramparca S01E21 \r\nWriting application : Lavf55.37.100 \r\n\r\nVideo \r\nID : 0 \r\nFormat : AVC \r\nFormat/Info : Advanced Video Codec \r\nFormat profile :    \r\nFormat settings, CABAC : Yes \r\nFormat settings, ReFrames : 1 frame \r\nCodec ID : H264 \r\nDuration : 45mn 21s \r\nBit rate : 797 Kbps \r\nWidth : 1 024 pixels \r\nHeight : 576 pixels \r\nDisplay aspect ratio : 16:9 \r\nFrame rate : 23.976 fps \r\nColor space : YUV \r\nChroma subsampling : 4:2:0 \r\nBit depth : 8 bits \r\nScan type : Progressive \r\nBits/(Pixel*Frame) : 0.056 \r\nStream size : 259 MiB (85%) \r\n\r\nAudio \r\nID : 1 \r\nFormat : MPEG Audio \r\nFormat version : Version 1 \r\nFormat profile : Layer 3 \r\nMode : Joint stereo \r\nMode extension : MS Stereo \r\nCodec ID : 55 \r\nCodec ID/Hint : MP3 \r\nDuration : 45mn 20s \r\nBit rate mode : Constant \r\nBit rate : 128 Kbps \r\nChannel(s) : 2 channels \r\nSampling rate : 44.1 KHz \r\nCompression mode : Lossy \r\nStream size : 41.5 MiB (14%) \r\nAlignment : Aligned on interleaves \r\nInterleave, duration : 26 ms (0.63 video frame) \r\nInterleave, preload duratio : 26 ms \r\nWriting library : LAME3.98.2","torrent":{"xt":"urn:btih:82100a0a99da2e8135229fabdf86f307c599608f","amp;dn":"Paramparca+S01E21Gr+Subs+%28Ragismenes+Kardies%29","amp;tr":["udp%3A%2F%2Ftracker.leechers-paradise.org%3A6969","udp%3A%2F%2Fzer0day.ch%3A1337","udp%3A%2F%2Fopen.demonii.com%3A1337","udp%3A%2F%2Ftracker.coppersurfer.tk%3A6969","udp%3A%2F%2Fexodus.desync.com%3A6969"],"infoHash":"82100a0a99da2e8135229fabdf86f307c599608f","infoHashBuffer":{"type":"Buffer","data":[130,16,10,10,153,218,46,129,53,34,159,171,223,134,243,7,197,153,96,143]},"announce":[],"urlList":[]}}